{
    "asset" : {
        "generator" : "Khronos glTF Blender I/O v1.7.33",
        "version" : "2.0"
    },
    "scene" : 0,
    "scenes" : [
        {
            "name" : "Scene",
            "nodes" : [
                0
            ]
        }
    ],
    "nodes" : [
        {
            "mesh" : 0,
            "name" : "Cube.001"
        }
    ],
    "meshes" : [
        {
            "name" : "Cube.001",
            "primitives" : [
                {
                    "attributes" : {
                        "POSITION" : 0,
                        "NORMAL" : 1,
                        "TANGENT" : 2,
                        "TEXCOORD_0" : 3
                    },
                    "indices" : 4
                }
            ]
        }
    ],
    "accessors" : [
        {
            "bufferView" : 0,
            "componentType" : 5126,
            "count" : 999,
            "max" : [
                0.49999988079071045,
                0.49999988079071045,
                0.49999988079071045
            ],
            "min" : [
                -0.49999988079071045,
                -0.49999988079071045,
                -0.49999988079071045
            ],
            "type" : "VEC3"
        },
        {
            "bufferView" : 1,
            "componentType" : 5126,
            "count" : 999,
            "type" : "VEC3"
        },
        {
            "bufferView" : 2,
            "componentType" : 5126,
            "count" : 999,
            "type" : "VEC4"
        },
        {
            "bufferView" : 3,
            "componentType" : 5126,
            "count" : 999,
            "type" : "VEC2"
        },
        {
            "bufferView" : 4,
            "componentType" : 5123,
            "count" : 3600,
            "type" : "SCALAR"
        }
    ],
    "bufferViews" : [
        {
            "buffer" : 0,
            "byteLength" : 11988,
            "byteOffset" : 0
        },
        {
            "buffer" : 0,
            "byteLength" : 11988,
            "byteOffset" : 11988
        },
        {
            "buffer" : 0,
            "byteLength" : 15984,
            "byteOffset" : 23976
        },
        {
            "buffer" : 0,
            "byteLength" : 7992,
            "byteOffset" : 39960
        },
        {
            "buffer" : 0,
            "byteLength" : 7200,
            "byteOffset" : 47952
        }
    ],
    "buffers" : [
        {
            "byteLength" : 55152,
            "uri" : "HighPolyBox.bin"
        }
    ]
}
